G04 #@! TF.FileFunction,Legend,Top*
%FSLAX46Y46*%
G04 Gerber Fmt 4.6, Leading zero omitted, Abs format (unit mm)*
G04 Created by KiCad (PCBNEW 4.0.7) date 02/17/18 00:03:31*
%MOMM*%
%LPD*%
G01*
G04 APERTURE LIST*
%ADD10C,0.100000*%
%ADD11C,0.300000*%
%ADD12C,0.200000*%
%ADD13C,0.120000*%
%ADD14C,0.150000*%
G04 APERTURE END LIST*
D10*
X131787858Y-100237857D02*
X131102143Y-100237857D01*
X131445001Y-100237857D02*
X131445001Y-99037857D01*
X131330715Y-99209286D01*
X131216429Y-99323571D01*
X131102143Y-99380714D01*
X131387858Y-96497857D02*
X131502143Y-96497857D01*
X131616429Y-96555000D01*
X131673572Y-96612143D01*
X131730715Y-96726429D01*
X131787858Y-96955000D01*
X131787858Y-97240714D01*
X131730715Y-97469286D01*
X131673572Y-97583571D01*
X131616429Y-97640714D01*
X131502143Y-97697857D01*
X131387858Y-97697857D01*
X131273572Y-97640714D01*
X131216429Y-97583571D01*
X131159286Y-97469286D01*
X131102143Y-97240714D01*
X131102143Y-96955000D01*
X131159286Y-96726429D01*
X131216429Y-96612143D01*
X131273572Y-96555000D01*
X131387858Y-96497857D01*
X129260715Y-94015000D02*
X129146429Y-93957857D01*
X128975000Y-93957857D01*
X128803572Y-94015000D01*
X128689286Y-94129286D01*
X128632143Y-94243571D01*
X128575000Y-94472143D01*
X128575000Y-94643571D01*
X128632143Y-94872143D01*
X128689286Y-94986429D01*
X128803572Y-95100714D01*
X128975000Y-95157857D01*
X129089286Y-95157857D01*
X129260715Y-95100714D01*
X129317858Y-95043571D01*
X129317858Y-94643571D01*
X129089286Y-94643571D01*
X129832143Y-95157857D02*
X129832143Y-93957857D01*
X130517858Y-95157857D01*
X130517858Y-93957857D01*
X131089286Y-95157857D02*
X131089286Y-93957857D01*
X131375001Y-93957857D01*
X131546429Y-94015000D01*
X131660715Y-94129286D01*
X131717858Y-94243571D01*
X131775001Y-94472143D01*
X131775001Y-94643571D01*
X131717858Y-94872143D01*
X131660715Y-94986429D01*
X131546429Y-95100714D01*
X131375001Y-95157857D01*
X131089286Y-95157857D01*
X129260715Y-91475000D02*
X129146429Y-91417857D01*
X128975000Y-91417857D01*
X128803572Y-91475000D01*
X128689286Y-91589286D01*
X128632143Y-91703571D01*
X128575000Y-91932143D01*
X128575000Y-92103571D01*
X128632143Y-92332143D01*
X128689286Y-92446429D01*
X128803572Y-92560714D01*
X128975000Y-92617857D01*
X129089286Y-92617857D01*
X129260715Y-92560714D01*
X129317858Y-92503571D01*
X129317858Y-92103571D01*
X129089286Y-92103571D01*
X129832143Y-92617857D02*
X129832143Y-91417857D01*
X130517858Y-92617857D01*
X130517858Y-91417857D01*
X131089286Y-92617857D02*
X131089286Y-91417857D01*
X131375001Y-91417857D01*
X131546429Y-91475000D01*
X131660715Y-91589286D01*
X131717858Y-91703571D01*
X131775001Y-91932143D01*
X131775001Y-92103571D01*
X131717858Y-92332143D01*
X131660715Y-92446429D01*
X131546429Y-92560714D01*
X131375001Y-92617857D01*
X131089286Y-92617857D01*
X130467143Y-88992143D02*
X130524286Y-88935000D01*
X130638572Y-88877857D01*
X130924286Y-88877857D01*
X131038572Y-88935000D01*
X131095715Y-88992143D01*
X131152858Y-89106429D01*
X131152858Y-89220714D01*
X131095715Y-89392143D01*
X130410001Y-90077857D01*
X131152858Y-90077857D01*
X130410001Y-86337857D02*
X131152858Y-86337857D01*
X130752858Y-86795000D01*
X130924286Y-86795000D01*
X131038572Y-86852143D01*
X131095715Y-86909286D01*
X131152858Y-87023571D01*
X131152858Y-87309286D01*
X131095715Y-87423571D01*
X131038572Y-87480714D01*
X130924286Y-87537857D01*
X130581429Y-87537857D01*
X130467143Y-87480714D01*
X130410001Y-87423571D01*
X131038572Y-84197857D02*
X131038572Y-84997857D01*
X130752858Y-83740714D02*
X130467143Y-84597857D01*
X131210001Y-84597857D01*
X131095715Y-81257857D02*
X130524286Y-81257857D01*
X130467143Y-81829286D01*
X130524286Y-81772143D01*
X130638572Y-81715000D01*
X130924286Y-81715000D01*
X131038572Y-81772143D01*
X131095715Y-81829286D01*
X131152858Y-81943571D01*
X131152858Y-82229286D01*
X131095715Y-82343571D01*
X131038572Y-82400714D01*
X130924286Y-82457857D01*
X130638572Y-82457857D01*
X130524286Y-82400714D01*
X130467143Y-82343571D01*
X131038572Y-78717857D02*
X130810001Y-78717857D01*
X130695715Y-78775000D01*
X130638572Y-78832143D01*
X130524286Y-79003571D01*
X130467143Y-79232143D01*
X130467143Y-79689286D01*
X130524286Y-79803571D01*
X130581429Y-79860714D01*
X130695715Y-79917857D01*
X130924286Y-79917857D01*
X131038572Y-79860714D01*
X131095715Y-79803571D01*
X131152858Y-79689286D01*
X131152858Y-79403571D01*
X131095715Y-79289286D01*
X131038572Y-79232143D01*
X130924286Y-79175000D01*
X130695715Y-79175000D01*
X130581429Y-79232143D01*
X130524286Y-79289286D01*
X130467143Y-79403571D01*
X130410001Y-76177857D02*
X131210001Y-76177857D01*
X130695715Y-77377857D01*
X130695715Y-74152143D02*
X130581429Y-74095000D01*
X130524286Y-74037857D01*
X130467143Y-73923571D01*
X130467143Y-73866429D01*
X130524286Y-73752143D01*
X130581429Y-73695000D01*
X130695715Y-73637857D01*
X130924286Y-73637857D01*
X131038572Y-73695000D01*
X131095715Y-73752143D01*
X131152858Y-73866429D01*
X131152858Y-73923571D01*
X131095715Y-74037857D01*
X131038572Y-74095000D01*
X130924286Y-74152143D01*
X130695715Y-74152143D01*
X130581429Y-74209286D01*
X130524286Y-74266429D01*
X130467143Y-74380714D01*
X130467143Y-74609286D01*
X130524286Y-74723571D01*
X130581429Y-74780714D01*
X130695715Y-74837857D01*
X130924286Y-74837857D01*
X131038572Y-74780714D01*
X131095715Y-74723571D01*
X131152858Y-74609286D01*
X131152858Y-74380714D01*
X131095715Y-74266429D01*
X131038572Y-74209286D01*
X130924286Y-74152143D01*
X130581429Y-72297857D02*
X130810001Y-72297857D01*
X130924286Y-72240714D01*
X130981429Y-72183571D01*
X131095715Y-72012143D01*
X131152858Y-71783571D01*
X131152858Y-71326429D01*
X131095715Y-71212143D01*
X131038572Y-71155000D01*
X130924286Y-71097857D01*
X130695715Y-71097857D01*
X130581429Y-71155000D01*
X130524286Y-71212143D01*
X130467143Y-71326429D01*
X130467143Y-71612143D01*
X130524286Y-71726429D01*
X130581429Y-71783571D01*
X130695715Y-71840714D01*
X130924286Y-71840714D01*
X131038572Y-71783571D01*
X131095715Y-71726429D01*
X131152858Y-71612143D01*
X95605715Y-91348000D02*
X95491429Y-91290857D01*
X95320000Y-91290857D01*
X95148572Y-91348000D01*
X95034286Y-91462286D01*
X94977143Y-91576571D01*
X94920000Y-91805143D01*
X94920000Y-91976571D01*
X94977143Y-92205143D01*
X95034286Y-92319429D01*
X95148572Y-92433714D01*
X95320000Y-92490857D01*
X95434286Y-92490857D01*
X95605715Y-92433714D01*
X95662858Y-92376571D01*
X95662858Y-91976571D01*
X95434286Y-91976571D01*
X96177143Y-92490857D02*
X96177143Y-91290857D01*
X96862858Y-92490857D01*
X96862858Y-91290857D01*
X97434286Y-92490857D02*
X97434286Y-91290857D01*
X97720001Y-91290857D01*
X97891429Y-91348000D01*
X98005715Y-91462286D01*
X98062858Y-91576571D01*
X98120001Y-91805143D01*
X98120001Y-91976571D01*
X98062858Y-92205143D01*
X98005715Y-92319429D01*
X97891429Y-92433714D01*
X97720001Y-92490857D01*
X97434286Y-92490857D01*
X95783429Y-89950857D02*
X95097714Y-89950857D01*
X95440572Y-89950857D02*
X95440572Y-88750857D01*
X95326286Y-88922286D01*
X95212000Y-89036571D01*
X95097714Y-89093714D01*
X96240571Y-88865143D02*
X96297714Y-88808000D01*
X96412000Y-88750857D01*
X96697714Y-88750857D01*
X96812000Y-88808000D01*
X96869143Y-88865143D01*
X96926286Y-88979429D01*
X96926286Y-89093714D01*
X96869143Y-89265143D01*
X96183429Y-89950857D01*
X96926286Y-89950857D01*
X95154857Y-87068000D02*
X95726286Y-87068000D01*
X95040572Y-87410857D02*
X95440572Y-86210857D01*
X95840572Y-87410857D01*
X96183428Y-86325143D02*
X96240571Y-86268000D01*
X96354857Y-86210857D01*
X96640571Y-86210857D01*
X96754857Y-86268000D01*
X96812000Y-86325143D01*
X96869143Y-86439429D01*
X96869143Y-86553714D01*
X96812000Y-86725143D01*
X96126286Y-87410857D01*
X96869143Y-87410857D01*
X95154857Y-84020000D02*
X95726286Y-84020000D01*
X95040572Y-84362857D02*
X95440572Y-83162857D01*
X95840572Y-84362857D01*
X96869143Y-84362857D02*
X96183428Y-84362857D01*
X96526286Y-84362857D02*
X96526286Y-83162857D01*
X96412000Y-83334286D01*
X96297714Y-83448571D01*
X96183428Y-83505714D01*
X95154857Y-81480000D02*
X95726286Y-81480000D01*
X95040572Y-81822857D02*
X95440572Y-80622857D01*
X95840572Y-81822857D01*
X96469143Y-80622857D02*
X96583428Y-80622857D01*
X96697714Y-80680000D01*
X96754857Y-80737143D01*
X96812000Y-80851429D01*
X96869143Y-81080000D01*
X96869143Y-81365714D01*
X96812000Y-81594286D01*
X96754857Y-81708571D01*
X96697714Y-81765714D01*
X96583428Y-81822857D01*
X96469143Y-81822857D01*
X96354857Y-81765714D01*
X96297714Y-81708571D01*
X96240571Y-81594286D01*
X96183428Y-81365714D01*
X96183428Y-81080000D01*
X96240571Y-80851429D01*
X96297714Y-80737143D01*
X96354857Y-80680000D01*
X96469143Y-80622857D01*
X95783429Y-79282857D02*
X95097714Y-79282857D01*
X95440572Y-79282857D02*
X95440572Y-78082857D01*
X95326286Y-78254286D01*
X95212000Y-78368571D01*
X95097714Y-78425714D01*
X96869143Y-78082857D02*
X96297714Y-78082857D01*
X96240571Y-78654286D01*
X96297714Y-78597143D01*
X96412000Y-78540000D01*
X96697714Y-78540000D01*
X96812000Y-78597143D01*
X96869143Y-78654286D01*
X96926286Y-78768571D01*
X96926286Y-79054286D01*
X96869143Y-79168571D01*
X96812000Y-79225714D01*
X96697714Y-79282857D01*
X96412000Y-79282857D01*
X96297714Y-79225714D01*
X96240571Y-79168571D01*
X95783429Y-76742857D02*
X95097714Y-76742857D01*
X95440572Y-76742857D02*
X95440572Y-75542857D01*
X95326286Y-75714286D01*
X95212000Y-75828571D01*
X95097714Y-75885714D01*
X96812000Y-75942857D02*
X96812000Y-76742857D01*
X96526286Y-75485714D02*
X96240571Y-76342857D01*
X96983429Y-76342857D01*
X95783429Y-74202857D02*
X95097714Y-74202857D01*
X95440572Y-74202857D02*
X95440572Y-73002857D01*
X95326286Y-73174286D01*
X95212000Y-73288571D01*
X95097714Y-73345714D01*
X96812000Y-73002857D02*
X96583429Y-73002857D01*
X96469143Y-73060000D01*
X96412000Y-73117143D01*
X96297714Y-73288571D01*
X96240571Y-73517143D01*
X96240571Y-73974286D01*
X96297714Y-74088571D01*
X96354857Y-74145714D01*
X96469143Y-74202857D01*
X96697714Y-74202857D01*
X96812000Y-74145714D01*
X96869143Y-74088571D01*
X96926286Y-73974286D01*
X96926286Y-73688571D01*
X96869143Y-73574286D01*
X96812000Y-73517143D01*
X96697714Y-73460000D01*
X96469143Y-73460000D01*
X96354857Y-73517143D01*
X96297714Y-73574286D01*
X96240571Y-73688571D01*
X95783429Y-71662857D02*
X95097714Y-71662857D01*
X95440572Y-71662857D02*
X95440572Y-70462857D01*
X95326286Y-70634286D01*
X95212000Y-70748571D01*
X95097714Y-70805714D01*
X96526286Y-70462857D02*
X96640571Y-70462857D01*
X96754857Y-70520000D01*
X96812000Y-70577143D01*
X96869143Y-70691429D01*
X96926286Y-70920000D01*
X96926286Y-71205714D01*
X96869143Y-71434286D01*
X96812000Y-71548571D01*
X96754857Y-71605714D01*
X96640571Y-71662857D01*
X96526286Y-71662857D01*
X96412000Y-71605714D01*
X96354857Y-71548571D01*
X96297714Y-71434286D01*
X96240571Y-71205714D01*
X96240571Y-70920000D01*
X96297714Y-70691429D01*
X96354857Y-70577143D01*
X96412000Y-70520000D01*
X96526286Y-70462857D01*
X110397857Y-85768571D02*
X109197857Y-85768571D01*
X109597857Y-85197142D02*
X110397857Y-85197142D01*
X109712143Y-85197142D02*
X109655000Y-85139999D01*
X109597857Y-85025713D01*
X109597857Y-84854285D01*
X109655000Y-84739999D01*
X109769286Y-84682856D01*
X110397857Y-84682856D01*
X110340714Y-84168571D02*
X110397857Y-84054285D01*
X110397857Y-83825713D01*
X110340714Y-83711428D01*
X110226429Y-83654285D01*
X110169286Y-83654285D01*
X110055000Y-83711428D01*
X109997857Y-83825713D01*
X109997857Y-83997142D01*
X109940714Y-84111428D01*
X109826429Y-84168571D01*
X109769286Y-84168571D01*
X109655000Y-84111428D01*
X109597857Y-83997142D01*
X109597857Y-83825713D01*
X109655000Y-83711428D01*
X110340714Y-82682856D02*
X110397857Y-82797142D01*
X110397857Y-83025713D01*
X110340714Y-83139999D01*
X110226429Y-83197142D01*
X109769286Y-83197142D01*
X109655000Y-83139999D01*
X109597857Y-83025713D01*
X109597857Y-82797142D01*
X109655000Y-82682856D01*
X109769286Y-82625713D01*
X109883571Y-82625713D01*
X109997857Y-83197142D01*
X110397857Y-82111428D02*
X109597857Y-82111428D01*
X109826429Y-82111428D02*
X109712143Y-82054285D01*
X109655000Y-81997142D01*
X109597857Y-81882856D01*
X109597857Y-81768571D01*
X109597857Y-81539999D02*
X109597857Y-81082856D01*
X109197857Y-81368571D02*
X110226429Y-81368571D01*
X110340714Y-81311428D01*
X110397857Y-81197142D01*
X110397857Y-81082856D01*
X110397857Y-79768571D02*
X109197857Y-79768571D01*
X110397857Y-79254285D02*
X109769286Y-79254285D01*
X109655000Y-79311428D01*
X109597857Y-79425714D01*
X109597857Y-79597142D01*
X109655000Y-79711428D01*
X109712143Y-79768571D01*
X110340714Y-78225714D02*
X110397857Y-78340000D01*
X110397857Y-78568571D01*
X110340714Y-78682857D01*
X110226429Y-78740000D01*
X109769286Y-78740000D01*
X109655000Y-78682857D01*
X109597857Y-78568571D01*
X109597857Y-78340000D01*
X109655000Y-78225714D01*
X109769286Y-78168571D01*
X109883571Y-78168571D01*
X109997857Y-78740000D01*
X110397857Y-77654286D02*
X109597857Y-77654286D01*
X109826429Y-77654286D02*
X109712143Y-77597143D01*
X109655000Y-77540000D01*
X109597857Y-77425714D01*
X109597857Y-77311429D01*
X110340714Y-76454286D02*
X110397857Y-76568572D01*
X110397857Y-76797143D01*
X110340714Y-76911429D01*
X110226429Y-76968572D01*
X109769286Y-76968572D01*
X109655000Y-76911429D01*
X109597857Y-76797143D01*
X109597857Y-76568572D01*
X109655000Y-76454286D01*
X109769286Y-76397143D01*
X109883571Y-76397143D01*
X109997857Y-76968572D01*
X109597857Y-75082857D02*
X110397857Y-74797143D01*
X109597857Y-74511429D02*
X110397857Y-74797143D01*
X110683571Y-74911429D01*
X110740714Y-74968572D01*
X110797857Y-75082857D01*
X110397857Y-73882857D02*
X110340714Y-73997143D01*
X110283571Y-74054286D01*
X110169286Y-74111429D01*
X109826429Y-74111429D01*
X109712143Y-74054286D01*
X109655000Y-73997143D01*
X109597857Y-73882857D01*
X109597857Y-73711429D01*
X109655000Y-73597143D01*
X109712143Y-73540000D01*
X109826429Y-73482857D01*
X110169286Y-73482857D01*
X110283571Y-73540000D01*
X110340714Y-73597143D01*
X110397857Y-73711429D01*
X110397857Y-73882857D01*
X109597857Y-72454286D02*
X110397857Y-72454286D01*
X109597857Y-72968572D02*
X110226429Y-72968572D01*
X110340714Y-72911429D01*
X110397857Y-72797143D01*
X110397857Y-72625715D01*
X110340714Y-72511429D01*
X110283571Y-72454286D01*
X110397857Y-71882858D02*
X109597857Y-71882858D01*
X109826429Y-71882858D02*
X109712143Y-71825715D01*
X109655000Y-71768572D01*
X109597857Y-71654286D01*
X109597857Y-71540001D01*
X113230000Y-90590713D02*
X113230000Y-90019284D01*
X113572857Y-90704998D02*
X112372857Y-90304998D01*
X113572857Y-89904998D01*
X113572857Y-89504999D02*
X112772857Y-89504999D01*
X113001429Y-89504999D02*
X112887143Y-89447856D01*
X112830000Y-89390713D01*
X112772857Y-89276427D01*
X112772857Y-89162142D01*
X113572857Y-88247856D02*
X112372857Y-88247856D01*
X113515714Y-88247856D02*
X113572857Y-88362142D01*
X113572857Y-88590713D01*
X113515714Y-88704999D01*
X113458571Y-88762142D01*
X113344286Y-88819285D01*
X113001429Y-88819285D01*
X112887143Y-88762142D01*
X112830000Y-88704999D01*
X112772857Y-88590713D01*
X112772857Y-88362142D01*
X112830000Y-88247856D01*
X112772857Y-87162142D02*
X113572857Y-87162142D01*
X112772857Y-87676428D02*
X113401429Y-87676428D01*
X113515714Y-87619285D01*
X113572857Y-87504999D01*
X113572857Y-87333571D01*
X113515714Y-87219285D01*
X113458571Y-87162142D01*
X113572857Y-86590714D02*
X112772857Y-86590714D01*
X112372857Y-86590714D02*
X112430000Y-86647857D01*
X112487143Y-86590714D01*
X112430000Y-86533571D01*
X112372857Y-86590714D01*
X112487143Y-86590714D01*
X112772857Y-86019285D02*
X113572857Y-86019285D01*
X112887143Y-86019285D02*
X112830000Y-85962142D01*
X112772857Y-85847856D01*
X112772857Y-85676428D01*
X112830000Y-85562142D01*
X112944286Y-85504999D01*
X113572857Y-85504999D01*
X113572857Y-84762142D02*
X113515714Y-84876428D01*
X113458571Y-84933571D01*
X113344286Y-84990714D01*
X113001429Y-84990714D01*
X112887143Y-84933571D01*
X112830000Y-84876428D01*
X112772857Y-84762142D01*
X112772857Y-84590714D01*
X112830000Y-84476428D01*
X112887143Y-84419285D01*
X113001429Y-84362142D01*
X113344286Y-84362142D01*
X113458571Y-84419285D01*
X113515714Y-84476428D01*
X113572857Y-84590714D01*
X113572857Y-84762142D01*
X113572857Y-82933571D02*
X112372857Y-82933571D01*
X112372857Y-82476428D01*
X112430000Y-82362142D01*
X112487143Y-82304999D01*
X112601429Y-82247856D01*
X112772857Y-82247856D01*
X112887143Y-82304999D01*
X112944286Y-82362142D01*
X113001429Y-82476428D01*
X113001429Y-82933571D01*
X113572857Y-81733571D02*
X112772857Y-81733571D01*
X113001429Y-81733571D02*
X112887143Y-81676428D01*
X112830000Y-81619285D01*
X112772857Y-81504999D01*
X112772857Y-81390714D01*
X113572857Y-80819285D02*
X113515714Y-80933571D01*
X113458571Y-80990714D01*
X113344286Y-81047857D01*
X113001429Y-81047857D01*
X112887143Y-80990714D01*
X112830000Y-80933571D01*
X112772857Y-80819285D01*
X112772857Y-80647857D01*
X112830000Y-80533571D01*
X112887143Y-80476428D01*
X113001429Y-80419285D01*
X113344286Y-80419285D01*
X113458571Y-80476428D01*
X113515714Y-80533571D01*
X113572857Y-80647857D01*
X113572857Y-80819285D01*
X113572857Y-78990714D02*
X112372857Y-78990714D01*
X113230000Y-78590714D01*
X112372857Y-78190714D01*
X113572857Y-78190714D01*
X113572857Y-77619285D02*
X112772857Y-77619285D01*
X112372857Y-77619285D02*
X112430000Y-77676428D01*
X112487143Y-77619285D01*
X112430000Y-77562142D01*
X112372857Y-77619285D01*
X112487143Y-77619285D01*
X113515714Y-76533570D02*
X113572857Y-76647856D01*
X113572857Y-76876427D01*
X113515714Y-76990713D01*
X113458571Y-77047856D01*
X113344286Y-77104999D01*
X113001429Y-77104999D01*
X112887143Y-77047856D01*
X112830000Y-76990713D01*
X112772857Y-76876427D01*
X112772857Y-76647856D01*
X112830000Y-76533570D01*
X113572857Y-76019285D02*
X112772857Y-76019285D01*
X113001429Y-76019285D02*
X112887143Y-75962142D01*
X112830000Y-75904999D01*
X112772857Y-75790713D01*
X112772857Y-75676428D01*
X113572857Y-75104999D02*
X113515714Y-75219285D01*
X113458571Y-75276428D01*
X113344286Y-75333571D01*
X113001429Y-75333571D01*
X112887143Y-75276428D01*
X112830000Y-75219285D01*
X112772857Y-75104999D01*
X112772857Y-74933571D01*
X112830000Y-74819285D01*
X112887143Y-74762142D01*
X113001429Y-74704999D01*
X113344286Y-74704999D01*
X113458571Y-74762142D01*
X113515714Y-74819285D01*
X113572857Y-74933571D01*
X113572857Y-75104999D01*
X113572857Y-72704999D02*
X113572857Y-73276428D01*
X112372857Y-73276428D01*
X113515714Y-71847856D02*
X113572857Y-71962142D01*
X113572857Y-72190713D01*
X113515714Y-72304999D01*
X113401429Y-72362142D01*
X112944286Y-72362142D01*
X112830000Y-72304999D01*
X112772857Y-72190713D01*
X112772857Y-71962142D01*
X112830000Y-71847856D01*
X112944286Y-71790713D01*
X113058571Y-71790713D01*
X113172857Y-72362142D01*
X113572857Y-71104999D02*
X113515714Y-71219285D01*
X113458571Y-71276428D01*
X113344286Y-71333571D01*
X113001429Y-71333571D01*
X112887143Y-71276428D01*
X112830000Y-71219285D01*
X112772857Y-71104999D01*
X112772857Y-70933571D01*
X112830000Y-70819285D01*
X112887143Y-70762142D01*
X113001429Y-70704999D01*
X113344286Y-70704999D01*
X113458571Y-70762142D01*
X113515714Y-70819285D01*
X113572857Y-70933571D01*
X113572857Y-71104999D01*
X112772857Y-70190714D02*
X113572857Y-70190714D01*
X112887143Y-70190714D02*
X112830000Y-70133571D01*
X112772857Y-70019285D01*
X112772857Y-69847857D01*
X112830000Y-69733571D01*
X112944286Y-69676428D01*
X113572857Y-69676428D01*
X113572857Y-68590714D02*
X112944286Y-68590714D01*
X112830000Y-68647857D01*
X112772857Y-68762143D01*
X112772857Y-68990714D01*
X112830000Y-69105000D01*
X113515714Y-68590714D02*
X113572857Y-68705000D01*
X113572857Y-68990714D01*
X113515714Y-69105000D01*
X113401429Y-69162143D01*
X113287143Y-69162143D01*
X113172857Y-69105000D01*
X113115714Y-68990714D01*
X113115714Y-68705000D01*
X113058571Y-68590714D01*
X113572857Y-68019286D02*
X112772857Y-68019286D01*
X113001429Y-68019286D02*
X112887143Y-67962143D01*
X112830000Y-67905000D01*
X112772857Y-67790714D01*
X112772857Y-67676429D01*
X113572857Y-66762143D02*
X112372857Y-66762143D01*
X113515714Y-66762143D02*
X113572857Y-66876429D01*
X113572857Y-67105000D01*
X113515714Y-67219286D01*
X113458571Y-67276429D01*
X113344286Y-67333572D01*
X113001429Y-67333572D01*
X112887143Y-67276429D01*
X112830000Y-67219286D01*
X112772857Y-67105000D01*
X112772857Y-66876429D01*
X112830000Y-66762143D01*
X113572857Y-66019286D02*
X113515714Y-66133572D01*
X113458571Y-66190715D01*
X113344286Y-66247858D01*
X113001429Y-66247858D01*
X112887143Y-66190715D01*
X112830000Y-66133572D01*
X112772857Y-66019286D01*
X112772857Y-65847858D01*
X112830000Y-65733572D01*
X112887143Y-65676429D01*
X113001429Y-65619286D01*
X113344286Y-65619286D01*
X113458571Y-65676429D01*
X113515714Y-65733572D01*
X113572857Y-65847858D01*
X113572857Y-66019286D01*
X126279286Y-90264285D02*
X126336429Y-90092856D01*
X126393571Y-90035713D01*
X126507857Y-89978570D01*
X126679286Y-89978570D01*
X126793571Y-90035713D01*
X126850714Y-90092856D01*
X126907857Y-90207142D01*
X126907857Y-90664285D01*
X125707857Y-90664285D01*
X125707857Y-90264285D01*
X125765000Y-90149999D01*
X125822143Y-90092856D01*
X125936429Y-90035713D01*
X126050714Y-90035713D01*
X126165000Y-90092856D01*
X126222143Y-90149999D01*
X126279286Y-90264285D01*
X126279286Y-90664285D01*
X126107857Y-89578570D02*
X126907857Y-89292856D01*
X126107857Y-89007142D02*
X126907857Y-89292856D01*
X127193571Y-89407142D01*
X127250714Y-89464285D01*
X127307857Y-89578570D01*
X126565000Y-87692856D02*
X126565000Y-87121427D01*
X126907857Y-87807141D02*
X125707857Y-87407141D01*
X126907857Y-87007141D01*
X126107857Y-86607142D02*
X126907857Y-86607142D01*
X126222143Y-86607142D02*
X126165000Y-86549999D01*
X126107857Y-86435713D01*
X126107857Y-86264285D01*
X126165000Y-86149999D01*
X126279286Y-86092856D01*
X126907857Y-86092856D01*
X126907857Y-85007142D02*
X125707857Y-85007142D01*
X126850714Y-85007142D02*
X126907857Y-85121428D01*
X126907857Y-85349999D01*
X126850714Y-85464285D01*
X126793571Y-85521428D01*
X126679286Y-85578571D01*
X126336429Y-85578571D01*
X126222143Y-85521428D01*
X126165000Y-85464285D01*
X126107857Y-85349999D01*
X126107857Y-85121428D01*
X126165000Y-85007142D01*
X126907857Y-84435714D02*
X126107857Y-84435714D01*
X126336429Y-84435714D02*
X126222143Y-84378571D01*
X126165000Y-84321428D01*
X126107857Y-84207142D01*
X126107857Y-84092857D01*
X126850714Y-83235714D02*
X126907857Y-83350000D01*
X126907857Y-83578571D01*
X126850714Y-83692857D01*
X126736429Y-83750000D01*
X126279286Y-83750000D01*
X126165000Y-83692857D01*
X126107857Y-83578571D01*
X126107857Y-83350000D01*
X126165000Y-83235714D01*
X126279286Y-83178571D01*
X126393571Y-83178571D01*
X126507857Y-83750000D01*
X126907857Y-82150000D02*
X126279286Y-82150000D01*
X126165000Y-82207143D01*
X126107857Y-82321429D01*
X126107857Y-82550000D01*
X126165000Y-82664286D01*
X126850714Y-82150000D02*
X126907857Y-82264286D01*
X126907857Y-82550000D01*
X126850714Y-82664286D01*
X126736429Y-82721429D01*
X126622143Y-82721429D01*
X126507857Y-82664286D01*
X126450714Y-82550000D01*
X126450714Y-82264286D01*
X126393571Y-82150000D01*
X126907857Y-80664286D02*
X125707857Y-80664286D01*
X126565000Y-80264286D01*
X125707857Y-79864286D01*
X126907857Y-79864286D01*
X126907857Y-78778571D02*
X126279286Y-78778571D01*
X126165000Y-78835714D01*
X126107857Y-78950000D01*
X126107857Y-79178571D01*
X126165000Y-79292857D01*
X126850714Y-78778571D02*
X126907857Y-78892857D01*
X126907857Y-79178571D01*
X126850714Y-79292857D01*
X126736429Y-79350000D01*
X126622143Y-79350000D01*
X126507857Y-79292857D01*
X126450714Y-79178571D01*
X126450714Y-78892857D01*
X126393571Y-78778571D01*
X126107857Y-78207143D02*
X126907857Y-78207143D01*
X126222143Y-78207143D02*
X126165000Y-78150000D01*
X126107857Y-78035714D01*
X126107857Y-77864286D01*
X126165000Y-77750000D01*
X126279286Y-77692857D01*
X126907857Y-77692857D01*
X126850714Y-76607143D02*
X126907857Y-76721429D01*
X126907857Y-76950000D01*
X126850714Y-77064286D01*
X126793571Y-77121429D01*
X126679286Y-77178572D01*
X126336429Y-77178572D01*
X126222143Y-77121429D01*
X126165000Y-77064286D01*
X126107857Y-76950000D01*
X126107857Y-76721429D01*
X126165000Y-76607143D01*
X126907857Y-76092858D02*
X126107857Y-76092858D01*
X125707857Y-76092858D02*
X125765000Y-76150001D01*
X125822143Y-76092858D01*
X125765000Y-76035715D01*
X125707857Y-76092858D01*
X125822143Y-76092858D01*
X126107857Y-75521429D02*
X126907857Y-75521429D01*
X126222143Y-75521429D02*
X126165000Y-75464286D01*
X126107857Y-75350000D01*
X126107857Y-75178572D01*
X126165000Y-75064286D01*
X126279286Y-75007143D01*
X126907857Y-75007143D01*
X126907857Y-74435715D02*
X126107857Y-74435715D01*
X125707857Y-74435715D02*
X125765000Y-74492858D01*
X125822143Y-74435715D01*
X125765000Y-74378572D01*
X125707857Y-74435715D01*
X125822143Y-74435715D01*
D11*
X123003571Y-90882857D02*
X124503571Y-90382857D01*
X123003571Y-89882857D01*
X124503571Y-89168571D02*
X124432143Y-89311429D01*
X124360714Y-89382857D01*
X124217857Y-89454286D01*
X123789286Y-89454286D01*
X123646429Y-89382857D01*
X123575000Y-89311429D01*
X123503571Y-89168571D01*
X123503571Y-88954286D01*
X123575000Y-88811429D01*
X123646429Y-88740000D01*
X123789286Y-88668571D01*
X124217857Y-88668571D01*
X124360714Y-88740000D01*
X124432143Y-88811429D01*
X124503571Y-88954286D01*
X124503571Y-89168571D01*
X124503571Y-87811428D02*
X124432143Y-87954286D01*
X124289286Y-88025714D01*
X123003571Y-88025714D01*
X124503571Y-86597143D02*
X123717857Y-86597143D01*
X123575000Y-86668572D01*
X123503571Y-86811429D01*
X123503571Y-87097143D01*
X123575000Y-87240000D01*
X124432143Y-86597143D02*
X124503571Y-86740000D01*
X124503571Y-87097143D01*
X124432143Y-87240000D01*
X124289286Y-87311429D01*
X124146429Y-87311429D01*
X124003571Y-87240000D01*
X123932143Y-87097143D01*
X123932143Y-86740000D01*
X123860714Y-86597143D01*
X123503571Y-85882857D02*
X124503571Y-85882857D01*
X123646429Y-85882857D02*
X123575000Y-85811429D01*
X123503571Y-85668571D01*
X123503571Y-85454286D01*
X123575000Y-85311429D01*
X123717857Y-85240000D01*
X124503571Y-85240000D01*
X123503571Y-84740000D02*
X123503571Y-84168571D01*
X123003571Y-84525714D02*
X124289286Y-84525714D01*
X124432143Y-84454286D01*
X124503571Y-84311428D01*
X124503571Y-84168571D01*
X124432143Y-83097143D02*
X124503571Y-83240000D01*
X124503571Y-83525714D01*
X124432143Y-83668571D01*
X124289286Y-83740000D01*
X123717857Y-83740000D01*
X123575000Y-83668571D01*
X123503571Y-83525714D01*
X123503571Y-83240000D01*
X123575000Y-83097143D01*
X123717857Y-83025714D01*
X123860714Y-83025714D01*
X124003571Y-83740000D01*
X123003571Y-81454286D02*
X123003571Y-80597143D01*
X124503571Y-81025714D02*
X123003571Y-81025714D01*
X124503571Y-80097143D02*
X123003571Y-80097143D01*
X124503571Y-79454286D02*
X123717857Y-79454286D01*
X123575000Y-79525715D01*
X123503571Y-79668572D01*
X123503571Y-79882857D01*
X123575000Y-80025715D01*
X123646429Y-80097143D01*
X124432143Y-78168572D02*
X124503571Y-78311429D01*
X124503571Y-78597143D01*
X124432143Y-78740000D01*
X124289286Y-78811429D01*
X123717857Y-78811429D01*
X123575000Y-78740000D01*
X123503571Y-78597143D01*
X123503571Y-78311429D01*
X123575000Y-78168572D01*
X123717857Y-78097143D01*
X123860714Y-78097143D01*
X124003571Y-78811429D01*
X123075000Y-75525715D02*
X123003571Y-75668572D01*
X123003571Y-75882858D01*
X123075000Y-76097143D01*
X123217857Y-76240001D01*
X123360714Y-76311429D01*
X123646429Y-76382858D01*
X123860714Y-76382858D01*
X124146429Y-76311429D01*
X124289286Y-76240001D01*
X124432143Y-76097143D01*
X124503571Y-75882858D01*
X124503571Y-75740001D01*
X124432143Y-75525715D01*
X124360714Y-75454286D01*
X123860714Y-75454286D01*
X123860714Y-75740001D01*
X124503571Y-74168572D02*
X123717857Y-74168572D01*
X123575000Y-74240001D01*
X123503571Y-74382858D01*
X123503571Y-74668572D01*
X123575000Y-74811429D01*
X124432143Y-74168572D02*
X124503571Y-74311429D01*
X124503571Y-74668572D01*
X124432143Y-74811429D01*
X124289286Y-74882858D01*
X124146429Y-74882858D01*
X124003571Y-74811429D01*
X123932143Y-74668572D01*
X123932143Y-74311429D01*
X123860714Y-74168572D01*
X124503571Y-73454286D02*
X123503571Y-73454286D01*
X123646429Y-73454286D02*
X123575000Y-73382858D01*
X123503571Y-73240000D01*
X123503571Y-73025715D01*
X123575000Y-72882858D01*
X123717857Y-72811429D01*
X124503571Y-72811429D01*
X123717857Y-72811429D02*
X123575000Y-72740000D01*
X123503571Y-72597143D01*
X123503571Y-72382858D01*
X123575000Y-72240000D01*
X123717857Y-72168572D01*
X124503571Y-72168572D01*
X124432143Y-70882858D02*
X124503571Y-71025715D01*
X124503571Y-71311429D01*
X124432143Y-71454286D01*
X124289286Y-71525715D01*
X123717857Y-71525715D01*
X123575000Y-71454286D01*
X123503571Y-71311429D01*
X123503571Y-71025715D01*
X123575000Y-70882858D01*
X123717857Y-70811429D01*
X123860714Y-70811429D01*
X124003571Y-71525715D01*
X123503571Y-70168572D02*
X125003571Y-70168572D01*
X123575000Y-70168572D02*
X123503571Y-70025715D01*
X123503571Y-69740001D01*
X123575000Y-69597144D01*
X123646429Y-69525715D01*
X123789286Y-69454286D01*
X124217857Y-69454286D01*
X124360714Y-69525715D01*
X124432143Y-69597144D01*
X124503571Y-69740001D01*
X124503571Y-70025715D01*
X124432143Y-70168572D01*
X124503571Y-68168572D02*
X123717857Y-68168572D01*
X123575000Y-68240001D01*
X123503571Y-68382858D01*
X123503571Y-68668572D01*
X123575000Y-68811429D01*
X124432143Y-68168572D02*
X124503571Y-68311429D01*
X124503571Y-68668572D01*
X124432143Y-68811429D01*
X124289286Y-68882858D01*
X124146429Y-68882858D01*
X124003571Y-68811429D01*
X123932143Y-68668572D01*
X123932143Y-68311429D01*
X123860714Y-68168572D01*
X124503571Y-66811429D02*
X123003571Y-66811429D01*
X124432143Y-66811429D02*
X124503571Y-66954286D01*
X124503571Y-67240000D01*
X124432143Y-67382858D01*
X124360714Y-67454286D01*
X124217857Y-67525715D01*
X123789286Y-67525715D01*
X123646429Y-67454286D01*
X123575000Y-67382858D01*
X123503571Y-67240000D01*
X123503571Y-66954286D01*
X123575000Y-66811429D01*
D12*
X112395000Y-103505000D02*
X112395000Y-101600000D01*
X114300000Y-105410000D02*
X112395000Y-103505000D01*
X113665000Y-105410000D02*
X114300000Y-105410000D01*
X113665000Y-106045000D02*
X113665000Y-105410000D01*
X111125000Y-103505000D02*
X113665000Y-106045000D01*
X111125000Y-101600000D02*
X111125000Y-103505000D01*
X110490000Y-101600000D02*
X110490000Y-97790000D01*
X113030000Y-101600000D02*
X110490000Y-101600000D01*
X113030000Y-97790000D02*
X113030000Y-101600000D01*
X110490000Y-97790000D02*
X113030000Y-97790000D01*
X111125000Y-97790000D02*
X111125000Y-96520000D01*
X112395000Y-97790000D02*
X111125000Y-97790000D01*
X112395000Y-96520000D02*
X112395000Y-97790000D01*
X111125000Y-96520000D02*
X112395000Y-96520000D01*
X113665000Y-92075000D02*
X109855000Y-92075000D01*
X113665000Y-95885000D02*
X113665000Y-92075000D01*
X109855000Y-95885000D02*
X113665000Y-95885000D01*
X109855000Y-92075000D02*
X109855000Y-95885000D01*
X107315000Y-93345000D02*
X107315000Y-64135000D01*
X116205000Y-93345000D02*
X107315000Y-93345000D01*
X116205000Y-64135000D02*
X116205000Y-93345000D01*
X107315000Y-64135000D02*
X116205000Y-64135000D01*
D13*
X116546000Y-104862000D02*
X121666000Y-104862000D01*
X116546000Y-107482000D02*
X121666000Y-107482000D01*
X116546000Y-104862000D02*
X116546000Y-107482000D01*
X121666000Y-104862000D02*
X121666000Y-107482000D01*
X116546000Y-98258000D02*
X121666000Y-98258000D01*
X116546000Y-100878000D02*
X121666000Y-100878000D01*
X116546000Y-98258000D02*
X116546000Y-100878000D01*
X121666000Y-98258000D02*
X121666000Y-100878000D01*
X123150000Y-95718000D02*
X128270000Y-95718000D01*
X123150000Y-98338000D02*
X128270000Y-98338000D01*
X123150000Y-95718000D02*
X123150000Y-98338000D01*
X128270000Y-95718000D02*
X128270000Y-98338000D01*
X104090000Y-63920000D02*
X105680000Y-63920000D01*
X105680000Y-63920000D02*
X105680000Y-94700000D01*
X105680000Y-94700000D02*
X102840000Y-94700000D01*
X102840000Y-94700000D02*
X102840000Y-65170000D01*
X103990000Y-63670000D02*
X102590000Y-63670000D01*
X102590000Y-63670000D02*
X102590000Y-65070000D01*
X119330000Y-63920000D02*
X120920000Y-63920000D01*
X120920000Y-63920000D02*
X120920000Y-94700000D01*
X120920000Y-94700000D02*
X118080000Y-94700000D01*
X118080000Y-94700000D02*
X118080000Y-65170000D01*
X119230000Y-63670000D02*
X117830000Y-63670000D01*
X117830000Y-63670000D02*
X117830000Y-65070000D01*
X133815000Y-70335000D02*
X135405000Y-70335000D01*
X135405000Y-70335000D02*
X135405000Y-101115000D01*
X135405000Y-101115000D02*
X132565000Y-101115000D01*
X132565000Y-101115000D02*
X132565000Y-71585000D01*
X133715000Y-70085000D02*
X132315000Y-70085000D01*
X132315000Y-70085000D02*
X132315000Y-71485000D01*
X92286000Y-69700000D02*
X93876000Y-69700000D01*
X93876000Y-69700000D02*
X93876000Y-92860000D01*
X93876000Y-92860000D02*
X91036000Y-92860000D01*
X91036000Y-92860000D02*
X91036000Y-70950000D01*
X92186000Y-69450000D02*
X90786000Y-69450000D01*
X90786000Y-69450000D02*
X90786000Y-70850000D01*
X104336000Y-106680462D02*
G75*
G03X98786000Y-105135170I-2990000J462D01*
G01*
X104336000Y-106679538D02*
G75*
G02X98786000Y-108224830I-2990000J-462D01*
G01*
X103846000Y-106680000D02*
G75*
G03X103846000Y-106680000I-2500000J0D01*
G01*
X98786000Y-105135000D02*
X98786000Y-108225000D01*
X128720000Y-105410462D02*
G75*
G03X123170000Y-103865170I-2990000J462D01*
G01*
X128720000Y-105409538D02*
G75*
G02X123170000Y-106954830I-2990000J-462D01*
G01*
X128230000Y-105410000D02*
G75*
G03X128230000Y-105410000I-2500000J0D01*
G01*
X123170000Y-103865000D02*
X123170000Y-106955000D01*
X108498000Y-98898000D02*
X105878000Y-98898000D01*
X105878000Y-98898000D02*
X105878000Y-105318000D01*
X105878000Y-105318000D02*
X108498000Y-105318000D01*
X108498000Y-105318000D02*
X108498000Y-98898000D01*
X107188000Y-98008000D02*
X107188000Y-98898000D01*
X107188000Y-106208000D02*
X107188000Y-105318000D01*
X99322000Y-101734000D02*
X99322000Y-101984000D01*
X99322000Y-101984000D02*
X99072000Y-101984000D01*
X99072000Y-101984000D02*
X99072000Y-102234000D01*
X99072000Y-102234000D02*
X97822000Y-102234000D01*
X97822000Y-102234000D02*
X97822000Y-101984000D01*
X97822000Y-101984000D02*
X94172000Y-101984000D01*
X94172000Y-101984000D02*
X94172000Y-102234000D01*
X94172000Y-102234000D02*
X92872000Y-102234000D01*
X92872000Y-102234000D02*
X92872000Y-101984000D01*
X92872000Y-101984000D02*
X92572000Y-101984000D01*
X92572000Y-101984000D02*
X92572000Y-101734000D01*
X97122000Y-94684000D02*
X98022000Y-94684000D01*
X98022000Y-94684000D02*
X99372000Y-96184000D01*
X99372000Y-96184000D02*
X99372000Y-99484000D01*
X92572000Y-99484000D02*
X92572000Y-96134000D01*
X92572000Y-96134000D02*
X93922000Y-94684000D01*
X93922000Y-94684000D02*
X94822000Y-94684000D01*
D14*
X118939334Y-103969143D02*
X118891715Y-104016762D01*
X118748858Y-104064381D01*
X118653620Y-104064381D01*
X118510762Y-104016762D01*
X118415524Y-103921524D01*
X118367905Y-103826286D01*
X118320286Y-103635810D01*
X118320286Y-103492952D01*
X118367905Y-103302476D01*
X118415524Y-103207238D01*
X118510762Y-103112000D01*
X118653620Y-103064381D01*
X118748858Y-103064381D01*
X118891715Y-103112000D01*
X118939334Y-103159619D01*
X119891715Y-104064381D02*
X119320286Y-104064381D01*
X119606000Y-104064381D02*
X119606000Y-103064381D01*
X119510762Y-103207238D01*
X119415524Y-103302476D01*
X119320286Y-103350095D01*
X116986952Y-108184381D02*
X117082191Y-108184381D01*
X117177429Y-108232000D01*
X117225048Y-108279619D01*
X117272667Y-108374857D01*
X117320286Y-108565333D01*
X117320286Y-108803429D01*
X117272667Y-108993905D01*
X117225048Y-109089143D01*
X117177429Y-109136762D01*
X117082191Y-109184381D01*
X116986952Y-109184381D01*
X116891714Y-109136762D01*
X116844095Y-109089143D01*
X116796476Y-108993905D01*
X116748857Y-108803429D01*
X116748857Y-108565333D01*
X116796476Y-108374857D01*
X116844095Y-108279619D01*
X116891714Y-108232000D01*
X116986952Y-108184381D01*
X117748857Y-109089143D02*
X117796476Y-109136762D01*
X117748857Y-109184381D01*
X117701238Y-109136762D01*
X117748857Y-109089143D01*
X117748857Y-109184381D01*
X118415523Y-108184381D02*
X118510762Y-108184381D01*
X118606000Y-108232000D01*
X118653619Y-108279619D01*
X118701238Y-108374857D01*
X118748857Y-108565333D01*
X118748857Y-108803429D01*
X118701238Y-108993905D01*
X118653619Y-109089143D01*
X118606000Y-109136762D01*
X118510762Y-109184381D01*
X118415523Y-109184381D01*
X118320285Y-109136762D01*
X118272666Y-109089143D01*
X118225047Y-108993905D01*
X118177428Y-108803429D01*
X118177428Y-108565333D01*
X118225047Y-108374857D01*
X118272666Y-108279619D01*
X118320285Y-108232000D01*
X118415523Y-108184381D01*
X119701238Y-109184381D02*
X119129809Y-109184381D01*
X119415523Y-109184381D02*
X119415523Y-108184381D01*
X119320285Y-108327238D01*
X119225047Y-108422476D01*
X119129809Y-108470095D01*
X120558381Y-108517714D02*
X120558381Y-109184381D01*
X120129809Y-108517714D02*
X120129809Y-109041524D01*
X120177428Y-109136762D01*
X120272666Y-109184381D01*
X120415524Y-109184381D01*
X120510762Y-109136762D01*
X120558381Y-109089143D01*
X121367905Y-108660571D02*
X121034571Y-108660571D01*
X121034571Y-109184381D02*
X121034571Y-108184381D01*
X121510762Y-108184381D01*
X118939334Y-97365143D02*
X118891715Y-97412762D01*
X118748858Y-97460381D01*
X118653620Y-97460381D01*
X118510762Y-97412762D01*
X118415524Y-97317524D01*
X118367905Y-97222286D01*
X118320286Y-97031810D01*
X118320286Y-96888952D01*
X118367905Y-96698476D01*
X118415524Y-96603238D01*
X118510762Y-96508000D01*
X118653620Y-96460381D01*
X118748858Y-96460381D01*
X118891715Y-96508000D01*
X118939334Y-96555619D01*
X119320286Y-96555619D02*
X119367905Y-96508000D01*
X119463143Y-96460381D01*
X119701239Y-96460381D01*
X119796477Y-96508000D01*
X119844096Y-96555619D01*
X119891715Y-96650857D01*
X119891715Y-96746095D01*
X119844096Y-96888952D01*
X119272667Y-97460381D01*
X119891715Y-97460381D01*
X116986952Y-101580381D02*
X117082191Y-101580381D01*
X117177429Y-101628000D01*
X117225048Y-101675619D01*
X117272667Y-101770857D01*
X117320286Y-101961333D01*
X117320286Y-102199429D01*
X117272667Y-102389905D01*
X117225048Y-102485143D01*
X117177429Y-102532762D01*
X117082191Y-102580381D01*
X116986952Y-102580381D01*
X116891714Y-102532762D01*
X116844095Y-102485143D01*
X116796476Y-102389905D01*
X116748857Y-102199429D01*
X116748857Y-101961333D01*
X116796476Y-101770857D01*
X116844095Y-101675619D01*
X116891714Y-101628000D01*
X116986952Y-101580381D01*
X117748857Y-102485143D02*
X117796476Y-102532762D01*
X117748857Y-102580381D01*
X117701238Y-102532762D01*
X117748857Y-102485143D01*
X117748857Y-102580381D01*
X118415523Y-101580381D02*
X118510762Y-101580381D01*
X118606000Y-101628000D01*
X118653619Y-101675619D01*
X118701238Y-101770857D01*
X118748857Y-101961333D01*
X118748857Y-102199429D01*
X118701238Y-102389905D01*
X118653619Y-102485143D01*
X118606000Y-102532762D01*
X118510762Y-102580381D01*
X118415523Y-102580381D01*
X118320285Y-102532762D01*
X118272666Y-102485143D01*
X118225047Y-102389905D01*
X118177428Y-102199429D01*
X118177428Y-101961333D01*
X118225047Y-101770857D01*
X118272666Y-101675619D01*
X118320285Y-101628000D01*
X118415523Y-101580381D01*
X119701238Y-102580381D02*
X119129809Y-102580381D01*
X119415523Y-102580381D02*
X119415523Y-101580381D01*
X119320285Y-101723238D01*
X119225047Y-101818476D01*
X119129809Y-101866095D01*
X120558381Y-101913714D02*
X120558381Y-102580381D01*
X120129809Y-101913714D02*
X120129809Y-102437524D01*
X120177428Y-102532762D01*
X120272666Y-102580381D01*
X120415524Y-102580381D01*
X120510762Y-102532762D01*
X120558381Y-102485143D01*
X121367905Y-102056571D02*
X121034571Y-102056571D01*
X121034571Y-102580381D02*
X121034571Y-101580381D01*
X121510762Y-101580381D01*
X125563334Y-94845143D02*
X125515715Y-94892762D01*
X125372858Y-94940381D01*
X125277620Y-94940381D01*
X125134762Y-94892762D01*
X125039524Y-94797524D01*
X124991905Y-94702286D01*
X124944286Y-94511810D01*
X124944286Y-94368952D01*
X124991905Y-94178476D01*
X125039524Y-94083238D01*
X125134762Y-93988000D01*
X125277620Y-93940381D01*
X125372858Y-93940381D01*
X125515715Y-93988000D01*
X125563334Y-94035619D01*
X125896667Y-93940381D02*
X126515715Y-93940381D01*
X126182381Y-94321333D01*
X126325239Y-94321333D01*
X126420477Y-94368952D01*
X126468096Y-94416571D01*
X126515715Y-94511810D01*
X126515715Y-94749905D01*
X126468096Y-94845143D01*
X126420477Y-94892762D01*
X126325239Y-94940381D01*
X126039524Y-94940381D01*
X125944286Y-94892762D01*
X125896667Y-94845143D01*
X123590952Y-99040381D02*
X123686191Y-99040381D01*
X123781429Y-99088000D01*
X123829048Y-99135619D01*
X123876667Y-99230857D01*
X123924286Y-99421333D01*
X123924286Y-99659429D01*
X123876667Y-99849905D01*
X123829048Y-99945143D01*
X123781429Y-99992762D01*
X123686191Y-100040381D01*
X123590952Y-100040381D01*
X123495714Y-99992762D01*
X123448095Y-99945143D01*
X123400476Y-99849905D01*
X123352857Y-99659429D01*
X123352857Y-99421333D01*
X123400476Y-99230857D01*
X123448095Y-99135619D01*
X123495714Y-99088000D01*
X123590952Y-99040381D01*
X124352857Y-99945143D02*
X124400476Y-99992762D01*
X124352857Y-100040381D01*
X124305238Y-99992762D01*
X124352857Y-99945143D01*
X124352857Y-100040381D01*
X125019523Y-99040381D02*
X125114762Y-99040381D01*
X125210000Y-99088000D01*
X125257619Y-99135619D01*
X125305238Y-99230857D01*
X125352857Y-99421333D01*
X125352857Y-99659429D01*
X125305238Y-99849905D01*
X125257619Y-99945143D01*
X125210000Y-99992762D01*
X125114762Y-100040381D01*
X125019523Y-100040381D01*
X124924285Y-99992762D01*
X124876666Y-99945143D01*
X124829047Y-99849905D01*
X124781428Y-99659429D01*
X124781428Y-99421333D01*
X124829047Y-99230857D01*
X124876666Y-99135619D01*
X124924285Y-99088000D01*
X125019523Y-99040381D01*
X126305238Y-100040381D02*
X125733809Y-100040381D01*
X126019523Y-100040381D02*
X126019523Y-99040381D01*
X125924285Y-99183238D01*
X125829047Y-99278476D01*
X125733809Y-99326095D01*
X127162381Y-99373714D02*
X127162381Y-100040381D01*
X126733809Y-99373714D02*
X126733809Y-99897524D01*
X126781428Y-99992762D01*
X126876666Y-100040381D01*
X127019524Y-100040381D01*
X127114762Y-99992762D01*
X127162381Y-99945143D01*
X127971905Y-99516571D02*
X127638571Y-99516571D01*
X127638571Y-100040381D02*
X127638571Y-99040381D01*
X128114762Y-99040381D01*
X101442381Y-79643333D02*
X102156667Y-79643333D01*
X102299524Y-79690953D01*
X102394762Y-79786191D01*
X102442381Y-79929048D01*
X102442381Y-80024286D01*
X102442381Y-78643333D02*
X102442381Y-79214762D01*
X102442381Y-78929048D02*
X101442381Y-78929048D01*
X101585238Y-79024286D01*
X101680476Y-79119524D01*
X101728095Y-79214762D01*
X116682381Y-79643333D02*
X117396667Y-79643333D01*
X117539524Y-79690953D01*
X117634762Y-79786191D01*
X117682381Y-79929048D01*
X117682381Y-80024286D01*
X116777619Y-79214762D02*
X116730000Y-79167143D01*
X116682381Y-79071905D01*
X116682381Y-78833809D01*
X116730000Y-78738571D01*
X116777619Y-78690952D01*
X116872857Y-78643333D01*
X116968095Y-78643333D01*
X117110952Y-78690952D01*
X117682381Y-79262381D01*
X117682381Y-78643333D01*
X133437381Y-103203333D02*
X134151667Y-103203333D01*
X134294524Y-103250953D01*
X134389762Y-103346191D01*
X134437381Y-103489048D01*
X134437381Y-103584286D01*
X133437381Y-102822381D02*
X133437381Y-102203333D01*
X133818333Y-102536667D01*
X133818333Y-102393809D01*
X133865952Y-102298571D01*
X133913571Y-102250952D01*
X134008810Y-102203333D01*
X134246905Y-102203333D01*
X134342143Y-102250952D01*
X134389762Y-102298571D01*
X134437381Y-102393809D01*
X134437381Y-102679524D01*
X134389762Y-102774762D01*
X134342143Y-102822381D01*
X89638381Y-81613333D02*
X90352667Y-81613333D01*
X90495524Y-81660953D01*
X90590762Y-81756191D01*
X90638381Y-81899048D01*
X90638381Y-81994286D01*
X89971714Y-80708571D02*
X90638381Y-80708571D01*
X89590762Y-80946667D02*
X90305048Y-81184762D01*
X90305048Y-80565714D01*
X100607905Y-103172381D02*
X100607905Y-102172381D01*
X100846000Y-102172381D01*
X100988858Y-102220000D01*
X101084096Y-102315238D01*
X101131715Y-102410476D01*
X101179334Y-102600952D01*
X101179334Y-102743810D01*
X101131715Y-102934286D01*
X101084096Y-103029524D01*
X100988858Y-103124762D01*
X100846000Y-103172381D01*
X100607905Y-103172381D01*
X102131715Y-103172381D02*
X101560286Y-103172381D01*
X101846000Y-103172381D02*
X101846000Y-102172381D01*
X101750762Y-102315238D01*
X101655524Y-102410476D01*
X101560286Y-102458095D01*
X124991905Y-101902381D02*
X124991905Y-100902381D01*
X125230000Y-100902381D01*
X125372858Y-100950000D01*
X125468096Y-101045238D01*
X125515715Y-101140476D01*
X125563334Y-101330952D01*
X125563334Y-101473810D01*
X125515715Y-101664286D01*
X125468096Y-101759524D01*
X125372858Y-101854762D01*
X125230000Y-101902381D01*
X124991905Y-101902381D01*
X125944286Y-100997619D02*
X125991905Y-100950000D01*
X126087143Y-100902381D01*
X126325239Y-100902381D01*
X126420477Y-100950000D01*
X126468096Y-100997619D01*
X126515715Y-101092857D01*
X126515715Y-101188095D01*
X126468096Y-101330952D01*
X125896667Y-101902381D01*
X126515715Y-101902381D01*
X109950381Y-102274666D02*
X109474190Y-102608000D01*
X109950381Y-102846095D02*
X108950381Y-102846095D01*
X108950381Y-102465142D01*
X108998000Y-102369904D01*
X109045619Y-102322285D01*
X109140857Y-102274666D01*
X109283714Y-102274666D01*
X109378952Y-102322285D01*
X109426571Y-102369904D01*
X109474190Y-102465142D01*
X109474190Y-102846095D01*
X109950381Y-101322285D02*
X109950381Y-101893714D01*
X109950381Y-101608000D02*
X108950381Y-101608000D01*
X109093238Y-101703238D01*
X109188476Y-101798476D01*
X109236095Y-101893714D01*
X105330381Y-104798476D02*
X105330381Y-105369905D01*
X105330381Y-105084191D02*
X104330381Y-105084191D01*
X104473238Y-105179429D01*
X104568476Y-105274667D01*
X104616095Y-105369905D01*
X104330381Y-104179429D02*
X104330381Y-104084190D01*
X104378000Y-103988952D01*
X104425619Y-103941333D01*
X104520857Y-103893714D01*
X104711333Y-103846095D01*
X104949429Y-103846095D01*
X105139905Y-103893714D01*
X105235143Y-103941333D01*
X105282762Y-103988952D01*
X105330381Y-104084190D01*
X105330381Y-104179429D01*
X105282762Y-104274667D01*
X105235143Y-104322286D01*
X105139905Y-104369905D01*
X104949429Y-104417524D01*
X104711333Y-104417524D01*
X104520857Y-104369905D01*
X104425619Y-104322286D01*
X104378000Y-104274667D01*
X104330381Y-104179429D01*
X104330381Y-103227048D02*
X104330381Y-103131809D01*
X104378000Y-103036571D01*
X104425619Y-102988952D01*
X104520857Y-102941333D01*
X104711333Y-102893714D01*
X104949429Y-102893714D01*
X105139905Y-102941333D01*
X105235143Y-102988952D01*
X105282762Y-103036571D01*
X105330381Y-103131809D01*
X105330381Y-103227048D01*
X105282762Y-103322286D01*
X105235143Y-103369905D01*
X105139905Y-103417524D01*
X104949429Y-103465143D01*
X104711333Y-103465143D01*
X104520857Y-103417524D01*
X104425619Y-103369905D01*
X104378000Y-103322286D01*
X104330381Y-103227048D01*
X104330381Y-101512762D02*
X104330381Y-101322285D01*
X104378000Y-101227047D01*
X104473238Y-101131809D01*
X104663714Y-101084190D01*
X104997048Y-101084190D01*
X105187524Y-101131809D01*
X105282762Y-101227047D01*
X105330381Y-101322285D01*
X105330381Y-101512762D01*
X105282762Y-101608000D01*
X105187524Y-101703238D01*
X104997048Y-101750857D01*
X104663714Y-101750857D01*
X104473238Y-101703238D01*
X104378000Y-101608000D01*
X104330381Y-101512762D01*
X105330381Y-100655619D02*
X104330381Y-100655619D01*
X105330381Y-100227047D02*
X104806571Y-100227047D01*
X104711333Y-100274666D01*
X104663714Y-100369904D01*
X104663714Y-100512762D01*
X104711333Y-100608000D01*
X104758952Y-100655619D01*
X105330381Y-99750857D02*
X104663714Y-99750857D01*
X104758952Y-99750857D02*
X104711333Y-99703238D01*
X104663714Y-99608000D01*
X104663714Y-99465142D01*
X104711333Y-99369904D01*
X104806571Y-99322285D01*
X105330381Y-99322285D01*
X104806571Y-99322285D02*
X104711333Y-99274666D01*
X104663714Y-99179428D01*
X104663714Y-99036571D01*
X104711333Y-98941333D01*
X104806571Y-98893714D01*
X105330381Y-98893714D01*
X91824381Y-98250666D02*
X91348190Y-98584000D01*
X91824381Y-98822095D02*
X90824381Y-98822095D01*
X90824381Y-98441142D01*
X90872000Y-98345904D01*
X90919619Y-98298285D01*
X91014857Y-98250666D01*
X91157714Y-98250666D01*
X91252952Y-98298285D01*
X91300571Y-98345904D01*
X91348190Y-98441142D01*
X91348190Y-98822095D01*
X90919619Y-97869714D02*
X90872000Y-97822095D01*
X90824381Y-97726857D01*
X90824381Y-97488761D01*
X90872000Y-97393523D01*
X90919619Y-97345904D01*
X91014857Y-97298285D01*
X91110095Y-97298285D01*
X91252952Y-97345904D01*
X91824381Y-97917333D01*
X91824381Y-97298285D01*
X100519619Y-100798286D02*
X100472000Y-100750667D01*
X100424381Y-100655429D01*
X100424381Y-100417333D01*
X100472000Y-100322095D01*
X100519619Y-100274476D01*
X100614857Y-100226857D01*
X100710095Y-100226857D01*
X100852952Y-100274476D01*
X101424381Y-100845905D01*
X101424381Y-100226857D01*
X101424381Y-99036381D02*
X100424381Y-99036381D01*
X101043429Y-98941143D02*
X101424381Y-98655428D01*
X100757714Y-98655428D02*
X101138667Y-99036381D01*
X100424381Y-98036381D02*
X100424381Y-97845904D01*
X100472000Y-97750666D01*
X100567238Y-97655428D01*
X100757714Y-97607809D01*
X101091048Y-97607809D01*
X101281524Y-97655428D01*
X101376762Y-97750666D01*
X101424381Y-97845904D01*
X101424381Y-98036381D01*
X101376762Y-98131619D01*
X101281524Y-98226857D01*
X101091048Y-98274476D01*
X100757714Y-98274476D01*
X100567238Y-98226857D01*
X100472000Y-98131619D01*
X100424381Y-98036381D01*
X101424381Y-97179238D02*
X100424381Y-97179238D01*
X101424381Y-96750666D02*
X100900571Y-96750666D01*
X100805333Y-96798285D01*
X100757714Y-96893523D01*
X100757714Y-97036381D01*
X100805333Y-97131619D01*
X100852952Y-97179238D01*
X101424381Y-96274476D02*
X100757714Y-96274476D01*
X100852952Y-96274476D02*
X100805333Y-96226857D01*
X100757714Y-96131619D01*
X100757714Y-95988761D01*
X100805333Y-95893523D01*
X100900571Y-95845904D01*
X101424381Y-95845904D01*
X100900571Y-95845904D02*
X100805333Y-95798285D01*
X100757714Y-95703047D01*
X100757714Y-95560190D01*
X100805333Y-95464952D01*
X100900571Y-95417333D01*
X101424381Y-95417333D01*
M02*
