G04 #@! TF.FileFunction,Copper,L2,Bot,Signal*
%FSLAX46Y46*%
G04 Gerber Fmt 4.6, Leading zero omitted, Abs format (unit mm)*
G04 Created by KiCad (PCBNEW 4.0.7) date 02/12/18 15:08:45*
%MOMM*%
%LPD*%
G01*
G04 APERTURE LIST*
%ADD10C,0.100000*%
%ADD11C,1.600000*%
%ADD12R,2.000000X2.000000*%
%ADD13C,2.000000*%
G04 APERTURE END LIST*
D10*
D11*
X124460000Y-99695000D03*
X126960000Y-99695000D03*
X117475000Y-99695000D03*
X119975000Y-99695000D03*
X117475000Y-106045000D03*
X119975000Y-106045000D03*
D12*
X104260000Y-65340000D03*
D13*
X104260000Y-67880000D03*
X104260000Y-70420000D03*
X104260000Y-72960000D03*
X104260000Y-75500000D03*
X104260000Y-78040000D03*
X104260000Y-80580000D03*
X104260000Y-83120000D03*
X104260000Y-85660000D03*
X104260000Y-88200000D03*
X104260000Y-90740000D03*
X104260000Y-93280000D03*
D12*
X119500000Y-65340000D03*
D13*
X119500000Y-67880000D03*
X119500000Y-70420000D03*
X119500000Y-72960000D03*
X119500000Y-75500000D03*
X119500000Y-78040000D03*
X119500000Y-80580000D03*
X119500000Y-83120000D03*
X119500000Y-85660000D03*
X119500000Y-88200000D03*
X119500000Y-90740000D03*
X119500000Y-93280000D03*
D12*
X133985000Y-71755000D03*
D13*
X133985000Y-74295000D03*
X133985000Y-76835000D03*
X133985000Y-79375000D03*
X133985000Y-81915000D03*
X133985000Y-84455000D03*
X133985000Y-86995000D03*
X133985000Y-89535000D03*
X133985000Y-92075000D03*
X133985000Y-94615000D03*
X133985000Y-97155000D03*
X133985000Y-99695000D03*
D12*
X93345000Y-74295000D03*
D13*
X93345000Y-76835000D03*
X93345000Y-79375000D03*
X93345000Y-81915000D03*
X93345000Y-84455000D03*
X93345000Y-86995000D03*
X93345000Y-89535000D03*
X93345000Y-92075000D03*
X93345000Y-94615000D03*
X99695000Y-104830000D03*
X99695000Y-100330000D03*
X106195000Y-104830000D03*
X106195000Y-100330000D03*
M02*
